<svg xmlns="http://www.w3.org/2000/svg" viewBox="0 0 600 340">
  <defs>
    <linearGradient id="bg" x1="0" y1="0" x2="1" y2="1">
      <stop offset="0%" stop-color="#100a0a"/>
      <stop offset="100%" stop-color="#0a0a0a"/>
    </linearGradient>
    <radialGradient id="glow" cx="50%" cy="50%">
      <stop offset="0%" stop-color="#F3293B" stop-opacity="0.18"/>
      <stop offset="80%" stop-color="transparent"/>
    </radialGradient>
  </defs>
  <rect width="600" height="340" fill="url(#bg)"/>
  <ellipse cx="300" cy="170" rx="190" ry="140" fill="url(#glow)"/>
  <!-- Document/form abstract -->
  <g opacity="0.35">
    <rect x="220" y="70" width="160" height="200" rx="8" fill="none" stroke="#F3293B" stroke-width="1"/>
    <line x1="240" y1="100" x2="360" y2="100" stroke="#F3293B" stroke-width="1" stroke-opacity="0.5"/>
    <line x1="240" y1="125" x2="340" y2="125" stroke="#F3293B" stroke-width="1" stroke-opacity="0.3"/>
    <line x1="240" y1="150" x2="360" y2="150" stroke="#F3293B" stroke-width="1" stroke-opacity="0.5"/>
    <line x1="240" y1="175" x2="320" y2="175" stroke="#F3293B" stroke-width="1" stroke-opacity="0.3"/>
    <line x1="240" y1="200" x2="350" y2="200" stroke="#F3293B" stroke-width="1" stroke-opacity="0.5"/>
    <line x1="240" y1="225" x2="300" y2="225" stroke="#F3293B" stroke-width="1" stroke-opacity="0.3"/>
  </g>
  <!-- Sparkle/AI indicator -->
  <g transform="translate(390,90)" opacity="0.5">
    <line x1="0" y1="-12" x2="0" y2="12" stroke="#F3293B" stroke-width="1.5"/>
    <line x1="-12" y1="0" x2="12" y2="0" stroke="#F3293B" stroke-width="1.5"/>
    <line x1="-8" y1="-8" x2="8" y2="8" stroke="#F3293B" stroke-width="1"/>
    <line x1="8" y1="-8" x2="-8" y2="8" stroke="#F3293B" stroke-width="1"/>
  </g>
  <text x="300" y="170" text-anchor="middle" font-family="system-ui,-apple-system,sans-serif" font-size="28" font-weight="800" fill="white" letter-spacing="2">branDesire</text>
  <text x="300" y="195" text-anchor="middle" font-family="system-ui,-apple-system,sans-serif" font-size="20" font-weight="300" fill="#F3293B" letter-spacing="4">GPT</text>
  <text x="300" y="222" text-anchor="middle" font-family="system-ui,-apple-system,sans-serif" font-size="12" fill="#808080" letter-spacing="3">BRIEFING GUIADO POR IA</text>
</svg>